<?xml version="1.0" encoding="UTF-8" standalone="no"?>
<!DOCTYPE svg PUBLIC "-//W3C//DTD SVG 1.1//EN"
 "http://www.w3.org/Graphics/SVG/1.1/DTD/svg11.dtd">
<!-- Generated by graphviz version 2.40.1 (20161225.0304)
 -->
<!-- Title: %3 Pages: 1 -->
<svg width="731pt" height="1248pt"
 viewBox="0.00 0.00 731.00 1248.00" xmlns="http://www.w3.org/2000/svg" xmlns:xlink="http://www.w3.org/1999/xlink">
<g id="graph0" class="graph" transform="scale(1 1) rotate(0) translate(4 1244)">
<title>%3</title>
<polygon fill="#ffffff" stroke="transparent" points="-4,4 -4,-1244 727,-1244 727,4 -4,4"/>
<!-- ec_dim.customer -->
<g id="node1" class="node">
<title>ec_dim.customer</title>
<polygon fill="#ffffcc" stroke="transparent" points="8,-62 8,-194 121,-194 121,-62 8,-62"/>
<text text-anchor="start" x="10.5" y="-185" font-family="Helvetica, Arial, sans-serif" font-weight="bold" text-decoration="underline" font-size="10.00" fill="#555555"> customer </text>
<text text-anchor="start" x="10.5" y="-171" font-family="Helvetica, Arial, sans-serif" font-size="10.00" fill="#555555"> customer_id </text>
<text text-anchor="start" x="10.5" y="-158" font-family="Helvetica, Arial, sans-serif" font-size="10.00" fill="#555555"> geo_location_fk </text>
<text text-anchor="start" x="10.5" y="-145" font-family="Helvetica, Arial, sans-serif" font-size="10.00" fill="#555555"> first_order_fk </text>
<text text-anchor="start" x="10.5" y="-132" font-family="Helvetica, Arial, sans-serif" font-size="10.00" fill="#555555"> last_order_fk </text>
<text text-anchor="start" x="10.5" y="-119" font-family="Helvetica, Arial, sans-serif" font-size="10.00" fill="#555555"> days_since_last_order </text>
<text text-anchor="start" x="10.5" y="-106" font-family="Helvetica, Arial, sans-serif" font-size="10.00" fill="#555555"> number_of_orders </text>
<text text-anchor="start" x="10.5" y="-93" font-family="Helvetica, Arial, sans-serif" font-size="10.00" fill="#555555"> number_of_order_items </text>
<text text-anchor="start" x="10.5" y="-80" font-family="Helvetica, Arial, sans-serif" font-size="10.00" fill="#555555"> revenue_lifetime </text>
<text text-anchor="start" x="10.5" y="-67" font-family="Helvetica, Arial, sans-serif" font-size="10.00" fill="#555555"> total_freight_value </text>
<polygon fill="none" stroke="#000000" points="8,-62 8,-194 121,-194 121,-62 8,-62"/>
</g>
<!-- ec_dim.geo_location -->
<g id="node2" class="node">
<title>ec_dim.geo_location</title>
<polygon fill="#ffffcc" stroke="transparent" points="290,-48.5 290,-193.5 373,-193.5 373,-48.5 290,-48.5"/>
<text text-anchor="start" x="292.5" y="-184" font-family="Helvetica, Arial, sans-serif" font-weight="bold" text-decoration="underline" font-size="10.00" fill="#555555"> geo_location </text>
<text text-anchor="start" x="292.5" y="-170" font-family="Helvetica, Arial, sans-serif" font-size="10.00" fill="#555555"> geo_location_id </text>
<text text-anchor="start" x="292.5" y="-157" font-family="Helvetica, Arial, sans-serif" font-size="10.00" fill="#555555"> zip_code_prefix </text>
<text text-anchor="start" x="292.5" y="-144" font-family="Helvetica, Arial, sans-serif" font-size="10.00" fill="#555555"> zip_code_digit_1 </text>
<text text-anchor="start" x="292.5" y="-131" font-family="Helvetica, Arial, sans-serif" font-size="10.00" fill="#555555"> zip_code_digit_2 </text>
<text text-anchor="start" x="292.5" y="-118" font-family="Helvetica, Arial, sans-serif" font-size="10.00" fill="#555555"> zip_code_digit_3 </text>
<text text-anchor="start" x="292.5" y="-105" font-family="Helvetica, Arial, sans-serif" font-size="10.00" fill="#555555"> zip_code_digit_4 </text>
<text text-anchor="start" x="292.5" y="-92" font-family="Helvetica, Arial, sans-serif" font-size="10.00" fill="#555555"> latitude </text>
<text text-anchor="start" x="292.5" y="-79" font-family="Helvetica, Arial, sans-serif" font-size="10.00" fill="#555555"> longitude </text>
<text text-anchor="start" x="292.5" y="-66" font-family="Helvetica, Arial, sans-serif" font-size="10.00" fill="#555555"> city </text>
<text text-anchor="start" x="292.5" y="-53" font-family="Helvetica, Arial, sans-serif" font-size="10.00" fill="#555555"> state </text>
<polygon fill="none" stroke="#000000" points="290,-48.5 290,-193.5 373,-193.5 373,-48.5 290,-48.5"/>
</g>
<!-- ec_dim.customer&#45;&gt;ec_dim.geo_location -->
<g id="edge19" class="edge">
<title>ec_dim.customer&#45;&gt;ec_dim.geo_location</title>
<path fill="none" stroke="#888888" d="M129.1333,-126.3055C172.4772,-125.1691 229.1584,-123.6831 271.5041,-122.5729"/>
<polygon fill="#888888" stroke="#888888" points="271.7659,-126.0674 281.6708,-122.3064 271.5824,-119.0698 271.7659,-126.0674"/>
</g>
<!-- ec_dim.order -->
<g id="node3" class="node">
<title>ec_dim.order</title>
<polygon fill="#ffffcc" stroke="transparent" points="146,-210 146,-368 265,-368 265,-210 146,-210"/>
<text text-anchor="start" x="148.5" y="-359" font-family="Helvetica, Arial, sans-serif" font-weight="bold" text-decoration="underline" font-size="10.00" fill="#555555"> order </text>
<text text-anchor="start" x="148.5" y="-345" font-family="Helvetica, Arial, sans-serif" font-size="10.00" fill="#555555"> order_id </text>
<text text-anchor="start" x="148.5" y="-332" font-family="Helvetica, Arial, sans-serif" font-size="10.00" fill="#555555"> customer_fk </text>
<text text-anchor="start" x="148.5" y="-319" font-family="Helvetica, Arial, sans-serif" font-size="10.00" fill="#555555"> status </text>
<text text-anchor="start" x="148.5" y="-306" font-family="Helvetica, Arial, sans-serif" font-size="10.00" fill="#555555"> purchase_date </text>
<text text-anchor="start" x="148.5" y="-293" font-family="Helvetica, Arial, sans-serif" font-size="10.00" fill="#555555"> approved_date </text>
<text text-anchor="start" x="148.5" y="-280" font-family="Helvetica, Arial, sans-serif" font-size="10.00" fill="#555555"> delivered_carrier_date </text>
<text text-anchor="start" x="148.5" y="-267" font-family="Helvetica, Arial, sans-serif" font-size="10.00" fill="#555555"> delivered_customer_date </text>
<text text-anchor="start" x="148.5" y="-254" font-family="Helvetica, Arial, sans-serif" font-size="10.00" fill="#555555"> estimated_delivery_date </text>
<text text-anchor="start" x="148.5" y="-241" font-family="Helvetica, Arial, sans-serif" font-size="10.00" fill="#555555"> number_of_items </text>
<text text-anchor="start" x="148.5" y="-228" font-family="Helvetica, Arial, sans-serif" font-size="10.00" fill="#555555"> revenue </text>
<text text-anchor="start" x="148.5" y="-215" font-family="Helvetica, Arial, sans-serif" font-size="10.00" fill="#555555"> total_freight_value </text>
<polygon fill="none" stroke="#000000" points="146,-210 146,-368 265,-368 265,-210 146,-210"/>
</g>
<!-- ec_dim.customer&#45;&gt;ec_dim.order -->
<g id="edge2" class="edge">
<title>ec_dim.customer&#45;&gt;ec_dim.order</title>
<path fill="none" stroke="#888888" d="M117.2535,-198.3313C121.798,-203.63 126.447,-208.9881 131.1188,-214.3123"/>
<polygon fill="#888888" stroke="#888888" points="128.7296,-216.8946 137.9701,-222.0776 133.9786,-212.2634 128.7296,-216.8946"/>
</g>
<!-- ec_dim.order&#45;&gt;ec_dim.customer -->
<g id="edge15" class="edge">
<title>ec_dim.order&#45;&gt;ec_dim.customer</title>
<path fill="none" stroke="#888888" d="M141.7289,-205.9405C139.7657,-203.6929 137.7956,-201.448 135.8246,-199.2127"/>
<polygon fill="#888888" stroke="#888888" points="138.3816,-196.821 129.1287,-191.6601 133.1437,-201.4648 138.3816,-196.821"/>
</g>
<!-- ec_dim.status -->
<g id="node8" class="node">
<title>ec_dim.status</title>
<polygon fill="#ffffcc" stroke="transparent" points="227.5,-10.5 227.5,-25.5 265.5,-25.5 265.5,-10.5 227.5,-10.5"/>
<text text-anchor="start" x="229.5" y="-16" font-family="Helvetica, Arial, sans-serif" font-weight="bold" text-decoration="underline" font-size="10.00" fill="#555555"> status </text>
<polygon fill="none" stroke="#000000" points="227.5,-10.5 227.5,-25.5 265.5,-25.5 265.5,-10.5 227.5,-10.5"/>
</g>
<!-- ec_dim.order&#45;&gt;ec_dim.status -->
<g id="edge13" class="edge">
<title>ec_dim.order&#45;&gt;ec_dim.status</title>
<path fill="none" stroke="#888888" d="M218.08,-205.8494C226.307,-151.471 236.545,-83.8004 242.215,-46.323"/>
<polygon fill="#888888" stroke="#888888" points="245.7188,-46.5601 243.7542,-36.149 238.7976,-45.5129 245.7188,-46.5601"/>
</g>
<!-- ec_dim.order_item -->
<g id="node4" class="node">
<title>ec_dim.order_item</title>
<polygon fill="#ffffcc" stroke="transparent" points="171.5,-572.5 171.5,-691.5 265.5,-691.5 265.5,-572.5 171.5,-572.5"/>
<text text-anchor="start" x="173.5" y="-682" font-family="Helvetica, Arial, sans-serif" font-weight="bold" text-decoration="underline" font-size="10.00" fill="#555555"> order_item </text>
<text text-anchor="start" x="173.5" y="-668" font-family="Helvetica, Arial, sans-serif" font-size="10.00" fill="#555555"> order_item_id </text>
<text text-anchor="start" x="173.5" y="-655" font-family="Helvetica, Arial, sans-serif" font-size="10.00" fill="#555555"> order_fk </text>
<text text-anchor="start" x="173.5" y="-642" font-family="Helvetica, Arial, sans-serif" font-size="10.00" fill="#555555"> customer_fk </text>
<text text-anchor="start" x="173.5" y="-629" font-family="Helvetica, Arial, sans-serif" font-size="10.00" fill="#555555"> product_fk </text>
<text text-anchor="start" x="173.5" y="-616" font-family="Helvetica, Arial, sans-serif" font-size="10.00" fill="#555555"> seller_fk </text>
<text text-anchor="start" x="173.5" y="-603" font-family="Helvetica, Arial, sans-serif" font-size="10.00" fill="#555555"> shipping_limit_date </text>
<text text-anchor="start" x="173.5" y="-590" font-family="Helvetica, Arial, sans-serif" font-size="10.00" fill="#555555"> revenue </text>
<text text-anchor="start" x="173.5" y="-577" font-family="Helvetica, Arial, sans-serif" font-size="10.00" fill="#555555"> freight_value </text>
<polygon fill="none" stroke="#000000" points="171.5,-572.5 171.5,-691.5 265.5,-691.5 265.5,-572.5 171.5,-572.5"/>
</g>
<!-- ec_dim.order_item&#45;&gt;ec_dim.customer -->
<g id="edge3" class="edge">
<title>ec_dim.order_item&#45;&gt;ec_dim.customer</title>
<path fill="none" stroke="#888888" d="M197.0143,-568.3652C179.692,-516.5283 154.9801,-441.3558 134.8,-375.2 117.8406,-319.6026 99.9367,-256.5745 86.4416,-208.0762"/>
<polygon fill="#888888" stroke="#888888" points="89.7656,-206.9652 83.7169,-198.2667 83.0209,-208.8386 89.7656,-206.9652"/>
</g>
<!-- ec_dim.order_item&#45;&gt;ec_dim.order -->
<g id="edge12" class="edge">
<title>ec_dim.order_item&#45;&gt;ec_dim.order</title>
<path fill="none" stroke="#888888" d="M216.0853,-568.2882C214.1035,-516.0013 211.2698,-441.2351 209.033,-382.2166"/>
<polygon fill="#888888" stroke="#888888" points="212.5274,-381.9995 208.6511,-372.1393 205.5324,-382.2647 212.5274,-381.9995"/>
</g>
<!-- ec_dim.product -->
<g id="node5" class="node">
<title>ec_dim.product</title>
<polygon fill="#ffffcc" stroke="transparent" points="152,-708 152,-892 265,-892 265,-708 152,-708"/>
<text text-anchor="start" x="154.5" y="-883" font-family="Helvetica, Arial, sans-serif" font-weight="bold" text-decoration="underline" font-size="10.00" fill="#555555"> product </text>
<text text-anchor="start" x="154.5" y="-869" font-family="Helvetica, Arial, sans-serif" font-size="10.00" fill="#555555"> product_id </text>
<text text-anchor="start" x="154.5" y="-856" font-family="Helvetica, Arial, sans-serif" font-size="10.00" fill="#555555"> category </text>
<text text-anchor="start" x="154.5" y="-843" font-family="Helvetica, Arial, sans-serif" font-size="10.00" fill="#555555"> number_of_photos </text>
<text text-anchor="start" x="154.5" y="-830" font-family="Helvetica, Arial, sans-serif" font-size="10.00" fill="#555555"> weight </text>
<text text-anchor="start" x="154.5" y="-817" font-family="Helvetica, Arial, sans-serif" font-size="10.00" fill="#555555"> length </text>
<text text-anchor="start" x="154.5" y="-804" font-family="Helvetica, Arial, sans-serif" font-size="10.00" fill="#555555"> height </text>
<text text-anchor="start" x="154.5" y="-791" font-family="Helvetica, Arial, sans-serif" font-size="10.00" fill="#555555"> width </text>
<text text-anchor="start" x="154.5" y="-778" font-family="Helvetica, Arial, sans-serif" font-size="10.00" fill="#555555"> number_of_orders </text>
<text text-anchor="start" x="154.5" y="-765" font-family="Helvetica, Arial, sans-serif" font-size="10.00" fill="#555555"> number_of_order_items </text>
<text text-anchor="start" x="154.5" y="-752" font-family="Helvetica, Arial, sans-serif" font-size="10.00" fill="#555555"> number_of_customers </text>
<text text-anchor="start" x="154.5" y="-739" font-family="Helvetica, Arial, sans-serif" font-size="10.00" fill="#555555"> revenue_all_time </text>
<text text-anchor="start" x="154.5" y="-726" font-family="Helvetica, Arial, sans-serif" font-size="10.00" fill="#555555"> total_freight_value </text>
<text text-anchor="start" x="154.5" y="-713" font-family="Helvetica, Arial, sans-serif" font-size="10.00" fill="#555555"> avg_days_of_delivery </text>
<polygon fill="none" stroke="#000000" points="152,-708 152,-892 265,-892 265,-708 152,-708"/>
</g>
<!-- ec_dim.order_item&#45;&gt;ec_dim.product -->
<g id="edge20" class="edge">
<title>ec_dim.order_item&#45;&gt;ec_dim.product</title>
<path fill="none" stroke="#888888" d="M214.7194,-695.5136C214.7142,-695.6007 214.7091,-695.6879 214.7039,-695.775"/>
<polygon fill="#888888" stroke="#888888" points="211.3172,-693.7688 214.2167,-703.9592 218.3048,-694.1848 211.3172,-693.7688"/>
</g>
<!-- ec_dim.seller -->
<g id="node7" class="node">
<title>ec_dim.seller</title>
<polygon fill="#ffffcc" stroke="transparent" points="290,-384.5 290,-555.5 403,-555.5 403,-384.5 290,-384.5"/>
<text text-anchor="start" x="292.5" y="-546" font-family="Helvetica, Arial, sans-serif" font-weight="bold" text-decoration="underline" font-size="10.00" fill="#555555"> seller </text>
<text text-anchor="start" x="292.5" y="-532" font-family="Helvetica, Arial, sans-serif" font-size="10.00" fill="#555555"> seller_id </text>
<text text-anchor="start" x="292.5" y="-519" font-family="Helvetica, Arial, sans-serif" font-size="10.00" fill="#555555"> geo_location_fk </text>
<text text-anchor="start" x="292.5" y="-506" font-family="Helvetica, Arial, sans-serif" font-size="10.00" fill="#555555"> first_order_fk </text>
<text text-anchor="start" x="292.5" y="-493" font-family="Helvetica, Arial, sans-serif" font-size="10.00" fill="#555555"> last_order_fk </text>
<text text-anchor="start" x="292.5" y="-480" font-family="Helvetica, Arial, sans-serif" font-size="10.00" fill="#555555"> days_since_last_order </text>
<text text-anchor="start" x="292.5" y="-467" font-family="Helvetica, Arial, sans-serif" font-size="10.00" fill="#555555"> number_of_orders </text>
<text text-anchor="start" x="292.5" y="-454" font-family="Helvetica, Arial, sans-serif" font-size="10.00" fill="#555555"> number_of_order_items </text>
<text text-anchor="start" x="292.5" y="-441" font-family="Helvetica, Arial, sans-serif" font-size="10.00" fill="#555555"> number_of_deliveries </text>
<text text-anchor="start" x="292.5" y="-428" font-family="Helvetica, Arial, sans-serif" font-size="10.00" fill="#555555"> number_of_customers </text>
<text text-anchor="start" x="292.5" y="-415" font-family="Helvetica, Arial, sans-serif" font-size="10.00" fill="#555555"> revenue_lifetime </text>
<text text-anchor="start" x="292.5" y="-402" font-family="Helvetica, Arial, sans-serif" font-size="10.00" fill="#555555"> total_freight_value </text>
<text text-anchor="start" x="292.5" y="-389" font-family="Helvetica, Arial, sans-serif" font-size="10.00" fill="#555555"> avg_days_of_approval </text>
<polygon fill="none" stroke="#000000" points="290,-384.5 290,-555.5 403,-555.5 403,-384.5 290,-384.5"/>
</g>
<!-- ec_dim.order_item&#45;&gt;ec_dim.seller -->
<g id="edge16" class="edge">
<title>ec_dim.order_item&#45;&gt;ec_dim.seller</title>
<path fill="none" stroke="#888888" d="M268.7216,-568.4383C271.0285,-565.5186 273.3605,-562.5672 275.7048,-559.6002"/>
<polygon fill="#888888" stroke="#888888" points="278.4768,-561.7374 281.9302,-551.7212 272.9843,-557.3977 278.4768,-561.7374"/>
</g>
<!-- ec_dim.product_category -->
<g id="node6" class="node">
<title>ec_dim.product_category</title>
<polygon fill="#ffffcc" stroke="transparent" points="35.5,-914.5 35.5,-929.5 127.5,-929.5 127.5,-914.5 35.5,-914.5"/>
<text text-anchor="start" x="37.5" y="-920" font-family="Helvetica, Arial, sans-serif" font-weight="bold" text-decoration="underline" font-size="10.00" fill="#555555"> product_category </text>
<polygon fill="none" stroke="#000000" points="35.5,-914.5 35.5,-929.5 127.5,-929.5 127.5,-914.5 35.5,-914.5"/>
</g>
<!-- ec_dim.product&#45;&gt;ec_dim.product_category -->
<g id="edge5" class="edge">
<title>ec_dim.product&#45;&gt;ec_dim.product_category</title>
<path fill="none" stroke="#888888" d="M143.8838,-862.0722C131.0636,-874.3877 118.3041,-886.6449 107.6964,-896.835"/>
<polygon fill="#888888" stroke="#888888" points="105.1694,-894.4092 100.3825,-903.8609 110.0188,-899.4573 105.1694,-894.4092"/>
</g>
<!-- ec_dim.seller&#45;&gt;ec_dim.geo_location -->
<g id="edge23" class="edge">
<title>ec_dim.seller&#45;&gt;ec_dim.geo_location</title>
<path fill="none" stroke="#888888" d="M321.538,-380.3052C321.2718,-378.5932 321.0251,-376.8903 320.8,-375.2 313.4099,-319.6957 315.9623,-256.8297 320.4227,-207.5027"/>
<polygon fill="#888888" stroke="#888888" points="323.9108,-207.7928 321.3691,-197.5074 316.942,-207.1329 323.9108,-207.7928"/>
</g>
<!-- ec_dim.seller&#45;&gt;ec_dim.order -->
<g id="edge21" class="edge">
<title>ec_dim.seller&#45;&gt;ec_dim.order</title>
<path fill="none" stroke="#888888" d="M281.9833,-387.1807C280.1478,-384.8245 278.3069,-382.4613 276.4655,-380.0976"/>
<polygon fill="#888888" stroke="#888888" points="279.1171,-377.806 270.2105,-372.0681 273.5949,-382.1078 279.1171,-377.806"/>
</g>
<!-- m_dim.average_stock -->
<g id="node9" class="node">
<title>m_dim.average_stock</title>
<polygon fill="#bbffcc" stroke="transparent" points="332,-346.5 332,-361.5 409,-361.5 409,-346.5 332,-346.5"/>
<text text-anchor="start" x="334.5" y="-352" font-family="Helvetica, Arial, sans-serif" font-weight="bold" text-decoration="underline" font-size="10.00" fill="#555555"> average_stock </text>
<polygon fill="none" stroke="#000000" points="332,-346.5 332,-361.5 409,-361.5 409,-346.5 332,-346.5"/>
</g>
<!-- m_dim.business_segment -->
<g id="node10" class="node">
<title>m_dim.business_segment</title>
<polygon fill="#bbffcc" stroke="transparent" points="432.5,-302.5 432.5,-317.5 530.5,-317.5 530.5,-302.5 432.5,-302.5"/>
<text text-anchor="start" x="434.5" y="-308" font-family="Helvetica, Arial, sans-serif" font-weight="bold" text-decoration="underline" font-size="10.00" fill="#555555"> business_segment </text>
<polygon fill="none" stroke="#000000" points="432.5,-302.5 432.5,-317.5 530.5,-317.5 530.5,-302.5 432.5,-302.5"/>
</g>
<!-- m_dim.business_type -->
<g id="node11" class="node">
<title>m_dim.business_type</title>
<polygon fill="#bbffcc" stroke="transparent" points="397,-258.5 397,-273.5 474,-273.5 474,-258.5 397,-258.5"/>
<text text-anchor="start" x="399.5" y="-264" font-family="Helvetica, Arial, sans-serif" font-weight="bold" text-decoration="underline" font-size="10.00" fill="#555555"> business_type </text>
<polygon fill="none" stroke="#000000" points="397,-258.5 397,-273.5 474,-273.5 474,-258.5 397,-258.5"/>
</g>
<!-- m_dim.closed_deal -->
<g id="node12" class="node">
<title>m_dim.closed_deal</title>
<polygon fill="#bbffcc" stroke="transparent" points="428,-648 428,-936 573,-936 573,-648 428,-648"/>
<text text-anchor="start" x="430.5" y="-927" font-family="Helvetica, Arial, sans-serif" font-weight="bold" text-decoration="underline" font-size="10.00" fill="#555555"> closed_deal </text>
<text text-anchor="start" x="430.5" y="-913" font-family="Helvetica, Arial, sans-serif" font-size="10.00" fill="#555555"> closed_deal_id </text>
<text text-anchor="start" x="430.5" y="-900" font-family="Helvetica, Arial, sans-serif" font-size="10.00" fill="#555555"> marketing_qualified_lead_fk </text>
<text text-anchor="start" x="430.5" y="-887" font-family="Helvetica, Arial, sans-serif" font-size="10.00" fill="#555555"> seller_fk </text>
<text text-anchor="start" x="430.5" y="-874" font-family="Helvetica, Arial, sans-serif" font-size="10.00" fill="#555555"> sdr_id </text>
<text text-anchor="start" x="430.5" y="-861" font-family="Helvetica, Arial, sans-serif" font-size="10.00" fill="#555555"> sr_id </text>
<text text-anchor="start" x="430.5" y="-848" font-family="Helvetica, Arial, sans-serif" font-size="10.00" fill="#555555"> won_date </text>
<text text-anchor="start" x="430.5" y="-835" font-family="Helvetica, Arial, sans-serif" font-size="10.00" fill="#555555"> business_segment </text>
<text text-anchor="start" x="430.5" y="-822" font-family="Helvetica, Arial, sans-serif" font-size="10.00" fill="#555555"> lead_type </text>
<text text-anchor="start" x="430.5" y="-809" font-family="Helvetica, Arial, sans-serif" font-size="10.00" fill="#555555"> lead_behaviour_profile </text>
<text text-anchor="start" x="430.5" y="-796" font-family="Helvetica, Arial, sans-serif" font-size="10.00" fill="#555555"> has_company </text>
<text text-anchor="start" x="430.5" y="-783" font-family="Helvetica, Arial, sans-serif" font-size="10.00" fill="#555555"> has_gtin </text>
<text text-anchor="start" x="430.5" y="-770" font-family="Helvetica, Arial, sans-serif" font-size="10.00" fill="#555555"> average_stock </text>
<text text-anchor="start" x="430.5" y="-757" font-family="Helvetica, Arial, sans-serif" font-size="10.00" fill="#555555"> business_type </text>
<text text-anchor="start" x="430.5" y="-744" font-family="Helvetica, Arial, sans-serif" font-size="10.00" fill="#555555"> declared_product_catalog_size </text>
<text text-anchor="start" x="430.5" y="-731" font-family="Helvetica, Arial, sans-serif" font-size="10.00" fill="#555555"> declared_monthly_revenue </text>
<text text-anchor="start" x="430.5" y="-718" font-family="Helvetica, Arial, sans-serif" font-size="10.00" fill="#555555"> number_of_orders </text>
<text text-anchor="start" x="430.5" y="-705" font-family="Helvetica, Arial, sans-serif" font-size="10.00" fill="#555555"> number_of_order_items </text>
<text text-anchor="start" x="430.5" y="-692" font-family="Helvetica, Arial, sans-serif" font-size="10.00" fill="#555555"> number_of_deliveries </text>
<text text-anchor="start" x="430.5" y="-679" font-family="Helvetica, Arial, sans-serif" font-size="10.00" fill="#555555"> number_of_customers </text>
<text text-anchor="start" x="430.5" y="-666" font-family="Helvetica, Arial, sans-serif" font-size="10.00" fill="#555555"> revenue_lifetime </text>
<text text-anchor="start" x="430.5" y="-653" font-family="Helvetica, Arial, sans-serif" font-size="10.00" fill="#555555"> total_freight_value </text>
<polygon fill="none" stroke="#000000" points="428,-648 428,-936 573,-936 573,-648 428,-648"/>
</g>
<!-- m_dim.closed_deal&#45;&gt;ec_dim.seller -->
<g id="edge7" class="edge">
<title>m_dim.closed_deal&#45;&gt;ec_dim.seller</title>
<path fill="none" stroke="#888888" d="M429.5852,-643.7235C417.4592,-618.3692 405.1306,-592.5913 393.8126,-568.9263"/>
<polygon fill="#888888" stroke="#888888" points="396.8337,-567.131 389.3616,-559.6197 390.5188,-570.1512 396.8337,-567.131"/>
</g>
<!-- m_dim.closed_deal&#45;&gt;m_dim.average_stock -->
<g id="edge25" class="edge">
<title>m_dim.closed_deal&#45;&gt;m_dim.average_stock</title>
<path fill="none" stroke="#888888" d="M499.8985,-643.6266C492.8793,-561.1632 472.6046,-460.3129 415.6879,-380.4484"/>
<polygon fill="#888888" stroke="#888888" points="418.437,-378.2788 409.6932,-372.2958 412.7975,-382.4256 418.437,-378.2788"/>
</g>
<!-- m_dim.closed_deal&#45;&gt;m_dim.business_segment -->
<g id="edge4" class="edge">
<title>m_dim.closed_deal&#45;&gt;m_dim.business_segment</title>
<path fill="none" stroke="#888888" d="M494.6573,-643.7799C490.3848,-535.3941 484.9476,-397.4609 482.6293,-338.6495"/>
<polygon fill="#888888" stroke="#888888" points="486.1124,-338.1479 482.2211,-328.2936 479.1178,-338.4237 486.1124,-338.1479"/>
</g>
<!-- m_dim.closed_deal&#45;&gt;m_dim.business_type -->
<g id="edge1" class="edge">
<title>m_dim.closed_deal&#45;&gt;m_dim.business_type</title>
<path fill="none" stroke="#888888" d="M468.4496,-643.93C450.6314,-553.979 430.2872,-436.5452 421.3,-331.2 419.961,-315.5042 417.2403,-309.082 420.3845,-294.1621"/>
<polygon fill="#888888" stroke="#888888" points="423.8298,-294.8209 422.9683,-284.2612 417.0566,-293.0533 423.8298,-294.8209"/>
</g>
<!-- m_dim.has_company -->
<g id="node13" class="node">
<title>m_dim.has_company</title>
<polygon fill="#bbffcc" stroke="transparent" points="598,-610.5 598,-625.5 673,-625.5 673,-610.5 598,-610.5"/>
<text text-anchor="start" x="600.5" y="-616" font-family="Helvetica, Arial, sans-serif" font-weight="bold" text-decoration="underline" font-size="10.00" fill="#555555"> has_company </text>
<polygon fill="none" stroke="#000000" points="598,-610.5 598,-625.5 673,-625.5 673,-610.5 598,-610.5"/>
</g>
<!-- m_dim.closed_deal&#45;&gt;m_dim.has_company -->
<g id="edge6" class="edge">
<title>m_dim.closed_deal&#45;&gt;m_dim.has_company</title>
<path fill="none" stroke="#888888" d="M581.1739,-688.0203C593.8016,-671.7446 605.7893,-656.2938 615.2752,-644.0675"/>
<polygon fill="#888888" stroke="#888888" points="618.0551,-646.1941 621.4198,-636.1478 612.5245,-641.9031 618.0551,-646.1941"/>
</g>
<!-- m_dim.has_gtin -->
<g id="node14" class="node">
<title>m_dim.has_gtin</title>
<polygon fill="#bbffcc" stroke="transparent" points="597.5,-958.5 597.5,-973.5 647.5,-973.5 647.5,-958.5 597.5,-958.5"/>
<text text-anchor="start" x="599.5" y="-964" font-family="Helvetica, Arial, sans-serif" font-weight="bold" text-decoration="underline" font-size="10.00" fill="#555555"> has_gtin </text>
<polygon fill="none" stroke="#000000" points="597.5,-958.5 597.5,-973.5 647.5,-973.5 647.5,-958.5 597.5,-958.5"/>
</g>
<!-- m_dim.closed_deal&#45;&gt;m_dim.has_gtin -->
<g id="edge18" class="edge">
<title>m_dim.closed_deal&#45;&gt;m_dim.has_gtin</title>
<path fill="none" stroke="#888888" d="M581.1964,-907.0915C589.5915,-919.0649 597.429,-930.243 603.9722,-939.5751"/>
<polygon fill="#888888" stroke="#888888" points="601.2181,-941.7438 609.8249,-947.9223 606.9497,-937.7251 601.2181,-941.7438"/>
</g>
<!-- m_dim.lead_behaviour_profile -->
<g id="node17" class="node">
<title>m_dim.lead_behaviour_profile</title>
<polygon fill="#bbffcc" stroke="transparent" points="598,-566.5 598,-581.5 715,-581.5 715,-566.5 598,-566.5"/>
<text text-anchor="start" x="600.5" y="-572" font-family="Helvetica, Arial, sans-serif" font-weight="bold" text-decoration="underline" font-size="10.00" fill="#555555"> lead_behaviour_profile </text>
<polygon fill="none" stroke="#000000" points="598,-566.5 598,-581.5 715,-581.5 715,-566.5 598,-566.5"/>
</g>
<!-- m_dim.closed_deal&#45;&gt;m_dim.lead_behaviour_profile -->
<g id="edge24" class="edge">
<title>m_dim.closed_deal&#45;&gt;m_dim.lead_behaviour_profile</title>
<path fill="none" stroke="#888888" d="M549.4722,-643.7748C558.405,-628.6759 568.8605,-614.4389 584.9961,-599.1531"/>
<polygon fill="#888888" stroke="#888888" points="587.771,-601.3613 592.8243,-592.0492 583.0668,-596.1775 587.771,-601.3613"/>
</g>
<!-- m_dim.lead_type -->
<g id="node18" class="node">
<title>m_dim.lead_type</title>
<polygon fill="#bbffcc" stroke="transparent" points="290,-914.5 290,-929.5 345,-929.5 345,-914.5 290,-914.5"/>
<text text-anchor="start" x="292.5" y="-920" font-family="Helvetica, Arial, sans-serif" font-weight="bold" text-decoration="underline" font-size="10.00" fill="#555555"> lead_type </text>
<polygon fill="none" stroke="#000000" points="290,-914.5 290,-929.5 345,-929.5 345,-914.5 290,-914.5"/>
</g>
<!-- m_dim.closed_deal&#45;&gt;m_dim.lead_type -->
<g id="edge8" class="edge">
<title>m_dim.closed_deal&#45;&gt;m_dim.lead_type</title>
<path fill="none" stroke="#888888" d="M419.9672,-849.2091C395.7433,-866.4174 370.4789,-884.3647 351.0978,-898.1327"/>
<polygon fill="#888888" stroke="#888888" points="349.0279,-895.3098 342.9025,-903.9545 353.0819,-901.0165 349.0279,-895.3098"/>
</g>
<!-- m_dim.marketing_qualified_lead -->
<g id="node20" class="node">
<title>m_dim.marketing_qualified_lead</title>
<polygon fill="#bbffcc" stroke="transparent" points="370,-951.5 370,-1018.5 501,-1018.5 501,-951.5 370,-951.5"/>
<text text-anchor="start" x="372.5" y="-1009" font-family="Helvetica, Arial, sans-serif" font-weight="bold" text-decoration="underline" font-size="10.00" fill="#555555"> marketing_qualified_lead </text>
<text text-anchor="start" x="372.5" y="-995" font-family="Helvetica, Arial, sans-serif" font-size="10.00" fill="#555555"> marketing_qualified_lead_id </text>
<text text-anchor="start" x="372.5" y="-982" font-family="Helvetica, Arial, sans-serif" font-size="10.00" fill="#555555"> first_contact_date </text>
<text text-anchor="start" x="372.5" y="-969" font-family="Helvetica, Arial, sans-serif" font-size="10.00" fill="#555555"> landing_page_id </text>
<text text-anchor="start" x="372.5" y="-956" font-family="Helvetica, Arial, sans-serif" font-size="10.00" fill="#555555"> origin </text>
<polygon fill="none" stroke="#000000" points="370,-951.5 370,-1018.5 501,-1018.5 501,-951.5 370,-951.5"/>
</g>
<!-- m_dim.closed_deal&#45;&gt;m_dim.marketing_qualified_lead -->
<g id="edge9" class="edge">
<title>m_dim.closed_deal&#45;&gt;m_dim.marketing_qualified_lead</title>
<path fill="none" stroke="#888888" d="M450.5757,-940.2368C450.5245,-940.3887 450.4735,-940.5403 450.4225,-940.6916"/>
<polygon fill="#888888" stroke="#888888" points="448.0618,-936.7354 448.187,-947.3295 454.6957,-938.9697 448.0618,-936.7354"/>
</g>
<!-- m_dim.is_closed_deal -->
<g id="node15" class="node">
<title>m_dim.is_closed_deal</title>
<polygon fill="#bbffcc" stroke="transparent" points="95.5,-1214.5 95.5,-1229.5 175.5,-1229.5 175.5,-1214.5 95.5,-1214.5"/>
<text text-anchor="start" x="97.5" y="-1220" font-family="Helvetica, Arial, sans-serif" font-weight="bold" text-decoration="underline" font-size="10.00" fill="#555555"> is_closed_deal </text>
<polygon fill="none" stroke="#000000" points="95.5,-1214.5 95.5,-1229.5 175.5,-1229.5 175.5,-1214.5 95.5,-1214.5"/>
</g>
<!-- m_dim.landing_page -->
<g id="node16" class="node">
<title>m_dim.landing_page</title>
<polygon fill="#bbffcc" stroke="transparent" points="431.5,-1040.5 431.5,-1055.5 505.5,-1055.5 505.5,-1040.5 431.5,-1040.5"/>
<text text-anchor="start" x="433.5" y="-1046" font-family="Helvetica, Arial, sans-serif" font-weight="bold" text-decoration="underline" font-size="10.00" fill="#555555"> landing_page </text>
<polygon fill="none" stroke="#000000" points="431.5,-1040.5 431.5,-1055.5 505.5,-1055.5 505.5,-1040.5 431.5,-1040.5"/>
</g>
<!-- m_dim.marketing_funnel -->
<g id="node19" class="node">
<title>m_dim.marketing_funnel</title>
<polygon fill="#bbffcc" stroke="transparent" points="200,-1034 200,-1192 345,-1192 345,-1034 200,-1034"/>
<text text-anchor="start" x="202.5" y="-1183" font-family="Helvetica, Arial, sans-serif" font-weight="bold" text-decoration="underline" font-size="10.00" fill="#555555"> marketing_funnel </text>
<text text-anchor="start" x="202.5" y="-1169" font-family="Helvetica, Arial, sans-serif" font-size="10.00" fill="#555555"> marketing_qualified_lead_fk </text>
<text text-anchor="start" x="202.5" y="-1156" font-family="Helvetica, Arial, sans-serif" font-size="10.00" fill="#555555"> closed_deal_fk </text>
<text text-anchor="start" x="202.5" y="-1143" font-family="Helvetica, Arial, sans-serif" font-size="10.00" fill="#555555"> is_closed_deal </text>
<text text-anchor="start" x="202.5" y="-1130" font-family="Helvetica, Arial, sans-serif" font-size="10.00" fill="#555555"> declared_product_catalog_size </text>
<text text-anchor="start" x="202.5" y="-1117" font-family="Helvetica, Arial, sans-serif" font-size="10.00" fill="#555555"> declared_monthly_revenue </text>
<text text-anchor="start" x="202.5" y="-1104" font-family="Helvetica, Arial, sans-serif" font-size="10.00" fill="#555555"> number_of_orders </text>
<text text-anchor="start" x="202.5" y="-1091" font-family="Helvetica, Arial, sans-serif" font-size="10.00" fill="#555555"> number_of_order_items </text>
<text text-anchor="start" x="202.5" y="-1078" font-family="Helvetica, Arial, sans-serif" font-size="10.00" fill="#555555"> number_of_deliveries </text>
<text text-anchor="start" x="202.5" y="-1065" font-family="Helvetica, Arial, sans-serif" font-size="10.00" fill="#555555"> number_of_customers </text>
<text text-anchor="start" x="202.5" y="-1052" font-family="Helvetica, Arial, sans-serif" font-size="10.00" fill="#555555"> revenue_lifetime </text>
<text text-anchor="start" x="202.5" y="-1039" font-family="Helvetica, Arial, sans-serif" font-size="10.00" fill="#555555"> total_freight_value </text>
<polygon fill="none" stroke="#000000" points="200,-1034 200,-1192 345,-1192 345,-1034 200,-1034"/>
</g>
<!-- m_dim.marketing_funnel&#45;&gt;m_dim.closed_deal -->
<g id="edge11" class="edge">
<title>m_dim.marketing_funnel&#45;&gt;m_dim.closed_deal</title>
<path fill="none" stroke="#888888" d="M309.4028,-1029.7133C323.3191,-1001.6159 340.3015,-970.705 358.8,-944.3 374.7641,-921.5126 393.9524,-898.6478 412.9787,-877.8157"/>
<polygon fill="#888888" stroke="#888888" points="415.7637,-879.9587 419.9748,-870.2366 410.6201,-875.2107 415.7637,-879.9587"/>
</g>
<!-- m_dim.marketing_funnel&#45;&gt;m_dim.is_closed_deal -->
<g id="edge22" class="edge">
<title>m_dim.marketing_funnel&#45;&gt;m_dim.is_closed_deal</title>
<path fill="none" stroke="#888888" d="M191.6184,-1177.351C182.6843,-1184.4592 174.0407,-1191.3362 166.3234,-1197.4763"/>
<polygon fill="#888888" stroke="#888888" points="163.989,-1194.8609 158.3428,-1203.8258 168.3473,-1200.3387 163.989,-1194.8609"/>
</g>
<!-- m_dim.marketing_funnel&#45;&gt;m_dim.marketing_qualified_lead -->
<g id="edge14" class="edge">
<title>m_dim.marketing_funnel&#45;&gt;m_dim.marketing_qualified_lead</title>
<path fill="none" stroke="#888888" d="M353.0449,-1049.75C362.0406,-1042.6859 371.0518,-1035.6096 379.6401,-1028.8654"/>
<polygon fill="#888888" stroke="#888888" points="382.0271,-1031.4412 387.7303,-1022.5124 377.7038,-1025.9358 382.0271,-1031.4412"/>
</g>
<!-- m_dim.marketing_qualified_lead&#45;&gt;m_dim.landing_page -->
<g id="edge17" class="edge">
<title>m_dim.marketing_qualified_lead&#45;&gt;m_dim.landing_page</title>
<path fill="none" stroke="#888888" d="M455.2678,-1022.7385C455.3467,-1022.8892 455.4255,-1023.0397 455.5042,-1023.1899"/>
<polygon fill="#888888" stroke="#888888" points="451.2048,-1022.525 458.9453,-1029.7593 457.4056,-1019.2769 451.2048,-1022.525"/>
</g>
<!-- m_dim.origin -->
<g id="node21" class="node">
<title>m_dim.origin</title>
<polygon fill="#bbffcc" stroke="transparent" points="369.5,-1214.5 369.5,-1229.5 407.5,-1229.5 407.5,-1214.5 369.5,-1214.5"/>
<text text-anchor="start" x="371.5" y="-1220" font-family="Helvetica, Arial, sans-serif" font-weight="bold" text-decoration="underline" font-size="10.00" fill="#555555"> origin </text>
<polygon fill="none" stroke="#000000" points="369.5,-1214.5 369.5,-1229.5 407.5,-1229.5 407.5,-1214.5 369.5,-1214.5"/>
</g>
<!-- m_dim.marketing_qualified_lead&#45;&gt;m_dim.origin -->
<g id="edge10" class="edge">
<title>m_dim.marketing_qualified_lead&#45;&gt;m_dim.origin</title>
<path fill="none" stroke="#888888" d="M421.4244,-1022.7217C421.0274,-1024.0926 420.6508,-1025.4551 420.3,-1026.8 405.1178,-1085.0105 395.8219,-1154.974 391.4664,-1193.3376"/>
<polygon fill="#888888" stroke="#888888" points="387.9373,-1193.4096 390.3201,-1203.733 394.8951,-1194.1769 387.9373,-1193.4096"/>
</g>
</g>
</svg>
